<svg width="18" height="19" viewBox="0 0 18 19" fill="none" xmlns="http://www.w3.org/2000/svg">
<path fill-rule="evenodd" clip-rule="evenodd" d="M14.1849 8.13417C14.1849 11.5818 11.4273 14.3767 8.02564 14.3767C4.624 14.3767 1.86643 11.5818 1.86643 8.13417C1.86643 4.68653 4.624 1.89167 8.02564 1.89167C11.4273 1.89167 14.1849 4.68653 14.1849 8.13417ZM12.5732 14.8374C11.2806 15.7399 9.71399 16.2683 8.02564 16.2683C3.5932 16.2683 0 12.6265 0 8.13417C0 3.64179 3.5932 0 8.02564 0C12.4581 0 16.0513 3.64179 16.0513 8.13417C16.0513 10.2325 15.2673 12.1453 13.9801 13.5881L17.7267 17.3854C18.0911 17.7547 18.0911 18.3536 17.7267 18.723C17.3622 19.0923 16.7713 19.0923 16.4069 18.723L12.5732 14.8374Z" fill="#191919"/>
</svg>
